<svg xmlns="http://www.w3.org/2000/svg" viewBox="0 0 512 450">
<g transform="translate(0,450) scale(0.1,-0.1)" fill="currentColor">
<path d="M2325 4383 c-86 -8 -293 -45 -386 -68 -598 -152 -1125 -523 -1468 -1036 -285 -424 -424 -884 -425 -1399 0 -305 42 -560 139 -840 75 -218 245 -528 387 -707 l50 -63 1423 0 1424 0 -117 195 -117 195 -1302 0 -1301 0 -51 89 c-218 381 -323 841 -292 1278 15 204 50 381 112 568 310 930 1177 1555 2159 1555 872 0 1660 -491 2045 -1276 309 -628 307 -1380 -5 -2009 -68 -136 -96 -183 -104 -174 -2 2 -254 429 -561 949 -306 520 -565 958 -575 974 l-17 28 -113 -198 c-62 -108 -113 -203 -113 -209 0 -20 1209 -2050 1244 -2089 12 -13 55 29 152 149 117 145 208 289 297 470 95 193 139 310 185 492 59 236 70 336 70 623 -1 279 -12 380 -65 598 -231 940 -992 1672 -1937 1861 -81 17 -195 35 -252 41 -96 9 -395 11 -486 3z"/>
<path d="M2535 2945 l-300 -535 -282 0 -281 0 -121 -202 -120 -203 507 -3 c279 -1 512 0 518 2 6 2 42 60 81 128 38 67 176 310 306 540 l237 416 -116 196 c-64 108 -119 196 -123 196 -3 -1 -141 -241 -306 -535z"/>
<path d="M1143 1528 c-25 -33 -234 -390 -231 -394 3 -2 461 -3 1020 -2 l1015 3 -118 200 -117 200 -780 3 c-616 2 -781 -1 -789 -10z"/>
</g>
</svg>












